# xmcd
# 
# Track frame offsets:
#     150
#     16532
#     30772
#     46110
#     58717
#     76110
#     90305
#     105220
#     119487
#     135867
#     159440
# 
# Disc length: 2385
# 
# Revision: 10
# Processed by: cddbd v1.5.2PL0 Copyright (c) Steve Scherf et al.
# Submitted via: BonkEnc v1.0
# 
DISCID=62094f0b
DTITLE=Skid Row - Skid Row
DYEAR=1989
DGENRE=Rock
TTITLE0=Big Guns
TTITLE1=Sweet Little Sister
TTITLE2=Can't Stand The Heartache
TTITLE3=Piece Of Me
TTITLE4=18 And Life
TTITLE5=Rattlesnake Shake
TTITLE6=Youth Gone Wild
TTITLE7=Here I Am
TTITLE8=Makin' A Mess
TTITLE9=I Remember You
TTITLE10=Midnight - Tornado
EXTD=YEAR: 1989
EXTT0=
EXTT1=
EXTT2=
EXTT3=
EXTT4=
EXTT5=
EXTT6=
EXTT7=
EXTT8=
EXTT9=
EXTT10=
PLAYORDER=
